<svg fill="#fff" xmlns="http://www.w3.org/2000/svg" viewBox="0 0 50 50" width="50px" height="50px"><path d="M 25 2 C 12.309295 2 2 12.309295 2 25 C 2 37.690705 12.309295 48 25 48 C 37.690705 48 48 37.690705 48 25 C 48 12.309295 37.690705 2 25 2 z M 25 4 C 36.609824 4 46 13.390176 46 25 C 46 36.609824 36.609824 46 25 46 C 13.390176 46 4 36.609824 4 25 C 4 13.390176 13.390176 4 25 4 z M 12 17 A 1.0001 1.0001 0 1 0 12 19 L 38 19 A 1.0001 1.0001 0 1 0 38 17 L 12 17 z M 15 25 A 1.0001 1.0001 0 1 0 15 27 L 35 27 A 1.0001 1.0001 0 1 0 35 25 L 15 25 z M 17 33 A 1.0001 1.0001 0 1 0 17 35 L 33 35 A 1.0001 1.0001 0 1 0 33 33 L 17 33 z"/></svg>